<?xml version="1.0" standalone="no"?>
<!DOCTYPE svg PUBLIC "-//W3C//DTD SVG 20010904//EN"
 "http://www.w3.org/TR/2001/REC-SVG-20010904/DTD/svg10.dtd">
<svg version="1.0" xmlns="http://www.w3.org/2000/svg"
 width="800.000000pt" height="499.000000pt" viewBox="0 0 800.000000 499.000000"
 preserveAspectRatio="xMidYMid meet">

<g transform="translate(0.000000,499.000000) scale(0.100000,-0.100000)"
fill="#000000" stroke="none">
<path d="M4020 4130 c-129 -65 -242 -119 -251 -119 -9 -1 -81 30 -160 68 -79
39 -165 76 -191 82 -44 12 -50 11 -75 -7 -18 -13 -29 -32 -31 -51 -5 -53 35
-86 204 -169 85 -42 161 -86 169 -98 7 -11 37 -136 65 -276 41 -207 55 -258
72 -272 25 -22 54 -23 62 -2 3 9 6 106 6 215 0 194 6 239 32 239 21 0 303
-111 317 -125 8 -7 16 -36 19 -65 3 -36 10 -54 24 -61 27 -14 35 -5 41 47 2
25 9 50 15 56 8 8 79 -21 241 -96 541 -250 799 -330 1431 -441 125 -22 133
-21 165 21 16 21 24 39 18 45 -5 5 -119 27 -253 49 -530 88 -722 136 -1085
272 -182 69 -429 172 -462 194 -30 19 -29 27 7 67 17 19 30 40 30 46 0 18 -62
12 -98 -9 -18 -11 -39 -20 -48 -20 -17 0 -248 134 -278 161 -11 11 -16 23 -11
35 3 11 78 77 166 147 88 71 163 135 166 144 8 19 -6 32 -42 38 -24 4 -77 -19
-265 -115z"/>
<path d="M2668 3390 c-42 -47 -108 -48 -659 -10 -210 15 -720 12 -904 -5 -295
-28 -361 -52 -410 -150 -28 -55 -30 -68 -30 -165 1 -154 29 -214 107 -226 41
-7 108 18 108 41 0 16 -5 19 -52 29 -18 4 -28 13 -28 24 0 64 219 153 490 201
149 27 334 51 388 51 51 0 64 -20 36 -55 -11 -13 -55 -68 -100 -122 -169 -206
-394 -528 -536 -768 -93 -158 -204 -388 -229 -476 -27 -94 -21 -149 25 -216
63 -92 198 -169 252 -144 30 13 30 24 3 61 -21 27 -21 33 -9 92 36 187 218
582 439 953 39 66 71 124 71 131 0 6 21 38 48 72 26 33 81 109 122 168 56 81
183 241 234 296 0 0 111 4 246 8 287 8 327 17 394 84 44 43 57 76 49 120 -7
36 -27 38 -55 6z"/>
<path d="M6521 3314 c-198 -85 -601 -633 -759 -1031 -31 -76 -40 -89 -130
-173 -316 -300 -548 -381 -622 -217 -22 47 -25 92 -10 131 12 32 37 33 78 2
108 -79 251 -49 376 79 101 103 187 282 169 354 -10 42 -33 82 -69 120 -19 20
-47 49 -62 65 -15 16 -55 42 -90 59 -53 25 -72 29 -120 25 -73 -6 -149 -42
-234 -112 -231 -191 -388 -523 -334 -708 29 -102 138 -218 263 -280 57 -28 69
-30 137 -26 125 8 268 90 449 258 100 92 117 94 117 11 0 -138 91 -317 222
-436 82 -74 231 -147 348 -171 249 -49 599 45 792 214 139 122 212 245 265
446 33 128 39 330 11 382 -10 18 -17 47 -16 65 3 81 -96 246 -221 369 -127
126 -276 218 -449 279 l-82 28 23 33 c27 39 69 65 91 57 11 -4 16 -19 16 -44
0 -37 2 -39 61 -66 33 -16 67 -26 74 -23 17 6 35 68 35 124 0 55 -19 91 -71
135 -72 63 -182 84 -258 51z m12 -310 c-11 -18 -14 -31 -7 -40 5 -8 72 -42
148 -74 223 -96 375 -211 476 -360 114 -169 157 -380 114 -573 -21 -98 -101
-258 -166 -334 -96 -113 -264 -220 -428 -275 -85 -28 -108 -31 -215 -32 -106
0 -129 3 -203 29 -46 15 -101 41 -122 56 -146 106 -199 408 -120 685 27 95 37
110 89 141 139 81 351 260 475 403 123 142 132 156 115 176 -16 19 -106 64
-130 64 -8 0 -25 -13 -37 -30 -90 -121 -249 -293 -293 -316 l-32 -16 7 29 c15
63 227 385 295 449 25 24 47 44 49 44 1 0 -5 -12 -15 -26z m-1132 -496 c3 -34
-6 -58 -44 -123 -49 -83 -115 -158 -176 -197 -50 -31 -82 -36 -101 -13 -11 13
-9 22 6 51 29 55 167 216 220 257 47 37 93 49 95 25z"/>
<path d="M1930 2793 c-69 -76 -116 -147 -136 -206 -18 -53 -13 -107 11 -127
37 -30 6 -84 -133 -235 -74 -80 -98 -125 -82 -155 13 -25 46 -26 82 -2 15 9
76 74 137 143 l110 126 68 17 c37 9 79 19 92 23 21 5 23 3 16 -18 -4 -13 -40
-71 -80 -129 -95 -138 -171 -272 -192 -336 -14 -46 -14 -55 0 -105 22 -73 89
-148 169 -188 34 -17 73 -31 88 -31 40 0 101 49 242 194 140 143 148 147 173
73 20 -57 63 -115 128 -168 108 -91 178 -91 262 -1 29 31 68 77 87 102 48 63
61 62 94 -5 31 -62 97 -129 149 -151 90 -37 158 -1 329 172 68 68 126 124 130
124 3 0 20 -30 38 -67 22 -47 52 -88 98 -134 83 -82 145 -114 203 -105 173 28
478 299 644 572 76 124 123 261 123 354 0 112 -131 260 -230 260 -40 0 -46
-19 -21 -61 26 -42 28 -132 5 -210 -25 -85 -99 -226 -178 -336 -176 -248 -352
-394 -364 -305 -11 78 169 468 290 628 44 59 47 82 14 113 -34 32 -123 63
-157 56 -50 -11 -200 -188 -308 -365 -40 -64 -190 -221 -311 -324 -94 -80
-125 -100 -141 -90 -31 19 32 145 207 411 52 78 94 149 94 156 0 29 -41 64
-112 97 -41 18 -95 54 -123 80 -68 63 -126 84 -212 78 -179 -13 -394 -159
-561 -382 -73 -95 -114 -137 -281 -287 -217 -195 -272 -222 -227 -114 15 35
165 277 284 458 40 61 72 120 72 133 0 53 -64 130 -131 158 -36 15 -36 15
-100 -28 -106 -70 -157 -98 -179 -94 -19 3 -19 4 5 56 14 30 25 64 25 77 0 48
-93 154 -136 155 -14 0 -41 -21 -74 -57z m1444 -289 c27 -10 13 -29 -255 -334
-202 -230 -270 -288 -304 -260 -19 16 -19 18 6 86 31 81 149 254 233 337 125
127 255 196 320 171z"/>
<path d="M2166 1314 c-11 -29 -7 -179 6 -192 13 -13 66 -16 92 -6 10 4 16 18
16 39 0 43 24 69 51 55 18 -10 19 -23 19 -170 l0 -159 -30 -16 c-26 -14 -30
-21 -30 -59 0 -31 5 -46 16 -50 20 -8 248 -8 268 0 22 9 23 104 1 104 -8 0
-24 9 -35 20 -18 18 -20 33 -20 156 0 141 8 174 40 174 23 0 32 -14 40 -60 5
-35 6 -35 55 -35 l50 0 0 105 0 105 -266 3 c-237 2 -267 1 -273 -14z"/>
<path d="M2987 1324 c-4 -4 -7 -26 -7 -50 0 -33 5 -45 25 -58 25 -16 25 -17
25 -175 0 -158 0 -159 -25 -175 -20 -13 -25 -25 -25 -60 0 -31 5 -46 16 -50
20 -8 218 -8 238 0 26 10 22 91 -6 114 -22 17 -23 25 -23 168 0 143 1 152 23
175 18 20 23 34 20 68 l-3 44 -126 3 c-69 1 -128 -1 -132 -4z"/>
<path d="M3537 1323 c-4 -3 -7 -26 -7 -49 0 -33 5 -46 20 -54 19 -10 20 -21
20 -174 0 -150 -2 -164 -20 -181 -25 -23 -28 -100 -4 -109 22 -8 177 -7 190 2
7 4 16 24 22 44 11 39 6 48 -30 61 -23 8 -33 68 -18 113 l13 37 17 -24 c20
-25 30 -64 30 -112 0 -40 44 -113 72 -121 32 -8 121 -7 134 2 22 15 51 89 57
144 5 54 32 118 49 118 11 0 20 -60 16 -105 -2 -32 -8 -42 -31 -53 -25 -12
-27 -17 -21 -50 11 -59 16 -62 129 -62 57 0 110 3 119 6 24 9 21 86 -4 109
-18 17 -20 31 -20 175 0 144 2 158 20 175 25 23 28 100 4 109 -9 3 -76 6 -149
6 -155 0 -141 10 -175 -123 -13 -48 -29 -95 -36 -105 -12 -16 -14 -16 -26 1
-8 10 -22 51 -32 90 -10 40 -24 87 -32 105 l-13 32 -144 0 c-79 0 -147 -3
-150 -7z"/>
<path d="M4597 1324 c-11 -11 -8 -104 2 -104 5 0 17 -7 25 -16 13 -13 16 -42
16 -164 0 -147 0 -149 -26 -169 -22 -17 -25 -26 -22 -68 l3 -48 220 -3 c121
-1 230 0 243 3 22 5 23 9 20 93 l-3 87 -53 3 c-58 3 -82 -8 -82 -39 0 -25 -44
-42 -86 -34 -35 6 -44 20 -44 70 0 45 29 65 97 65 59 0 69 13 58 79 l-6 37
-60 -4 c-68 -5 -89 6 -89 49 0 38 24 59 70 59 41 0 49 -6 65 -55 7 -18 17 -29
25 -27 8 2 36 6 63 9 l48 6 -3 86 -3 86 -236 3 c-129 1 -238 -1 -242 -4z"/>
<path d="M1647 1064 c-4 -4 -7 -27 -7 -50 0 -51 4 -53 115 -50 94 3 113 10
121 41 14 56 8 60 -112 63 -60 1 -113 -1 -117 -4z"/>
<path d="M5382 1018 l3 -53 110 0 110 0 3 53 3 52 -116 0 -116 0 3 -52z"/>
</g>
</svg>
