<?xml version="1.0" encoding="utf-8"?>
<!-- Generator: Adobe Illustrator 16.0.0, SVG Export Plug-In . SVG Version: 6.00 Build 0)  -->
<!DOCTYPE svg PUBLIC "-//W3C//DTD SVG 1.1//EN" "http://www.w3.org/Graphics/SVG/1.1/DTD/svg11.dtd">
<svg version="1.1" id="Layer_1" xmlns="http://www.w3.org/2000/svg" xmlns:xlink="http://www.w3.org/1999/xlink" x="0px" y="0px"
	 width="1600px" height="800px" viewBox="0 0 1600 800" enable-background="new 0 0 1600 800" xml:space="preserve">
<g>
	<path fill="#E52620" stroke="#FFFFFF" stroke-width="3" stroke-miterlimit="10" d="M1180.471,485.871
		c-11.494-0.004-22.994,0.227-34.479-0.113c-4.752-0.141-7.201,1.734-9.279,5.746c-9.035,17.451-18.412,34.727-27.441,52.178
		c-1.836,3.551-3.99,5.197-8.082,5.154c-16.154-0.17-32.313-0.035-48.471-0.09c-5.631-0.021-5.99-0.662-3.166-5.586
		c33.131-57.791,66.291-115.568,99.438-173.352c19.063-33.225,38.174-66.419,57.102-99.722c2.082-3.666,4.479-5.199,8.672-5.158
		c16.822,0.168,33.646,0.177,50.469,0.007c4.686-0.05,6.314,1.567,6.467,6.36c1.191,37.93,2.621,75.855,4.01,113.778
		c0.965,26.28,1.967,52.559,2.967,78.836c0.975,25.611,2.021,51.225,2.924,76.84c0.268,7.549,0.096,7.857-7.193,7.904
		c-15.982,0.104-31.973-0.176-47.957-0.193c-4.141-0.006-5.352-1.916-5.283-5.869c0.287-17.482,0.227-34.977,0.588-52.459
		c0.072-3.566-1.273-4.301-4.301-4.285C1205.123,485.91,1192.797,485.875,1180.471,485.871z M1223.068,331.583
		c-1.129,1.568-1.465,1.939-1.695,2.367c-18.906,35.178-37.777,70.376-56.748,105.521c-2.191,4.064-0.277,4.352,3.078,4.338
		c15.98-0.072,31.961-0.201,47.938,0.07c4.941,0.082,6.58-1.275,6.6-6.43c0.104-26.455-0.443-52.918,0.771-79.372
		C1223.395,349.663,1223.068,341.214,1223.068,331.583z"/>
	<path fill="#E52620" stroke="#FFFFFF" stroke-width="3" stroke-miterlimit="10" d="M148.157,453.238
		c2.69-1.994,3.124-4.396,4.034-6.469c25.922-59.016,51.838-118.038,77.632-177.111c1.521-3.482,3.634-4.707,7.229-4.689
		c17.328,0.084,34.656-0.006,51.983,0.062c5.219,0.02,5.532,0.668,3.175,5.539c-26.323,54.438-52.669,108.866-78.98,163.309
		c-17.541,36.295-35.103,72.582-52.466,108.963c-2.085,4.367-4.629,6.143-9.524,6.031c-13.656-0.305-27.323-0.023-40.984-0.162
		c-7.474-0.076-7.887-0.408-8.581-7.746c-1.898-20.045-3.549-40.111-5.384-60.164c-2.153-23.527-4.429-47.049-6.593-70.574
		c-1.83-19.887-3.548-39.782-5.367-59.667c-2.167-23.695-4.393-47.386-6.58-71.079c-0.199-2.154-0.324-4.316-0.454-6.478
		c-0.481-7.992-0.477-8.002,7.805-8.004c15.329-0.006,30.659,0.137,45.985-0.076c4.957-0.067,6.5,1.701,6.758,6.654
		c1.694,32.408,3.758,64.796,5.622,97.197c1.166,20.271,2.181,40.555,3.289,60.831C147.169,437.217,147.655,444.826,148.157,453.238
		z"/>
	<path fill="#E52620" stroke="#FFFFFF" stroke-width="3" stroke-miterlimit="10" d="M883.535,395.916
		c-18.658,0.004-37.316,0.117-55.975-0.078c-4.572-0.049-6.277,1.417-5.982,6.036c0.27,4.174,0.682,8.311,1.572,12.363
		c4.119,18.727,16.646,28.936,36.314,29.354c18.4,0.395,36.041-3.496,53.094-10.256c5.705-2.264,5.795-2.305,6.748,3.791
		c1.543,9.863,2.836,19.77,4.451,29.623c0.557,3.391-0.559,5.131-3.627,6.555c-17.621,8.164-36.314,11.84-55.475,13.781
		c-14.695,1.488-29.313,1.201-43.635-2.598c-32.437-8.604-51.629-30.311-55.282-62.965c-5.793-51.778,7.559-98.295,45.938-135.346
		c17.893-17.274,40.113-25.791,65.133-26.571c11.725-0.367,23.313,0.18,34.479,4.301c23.893,8.817,36.609,26.791,41.314,51.022
		c5.084,26.195,0.008,51.667-6.18,77.012c-0.883,3.604-3.334,4.008-6.414,3.998C921.184,395.884,902.359,395.912,883.535,395.916z
		 M861.012,353.811c10.484,0,20.969-0.026,31.453,0.021c2.545,0.012,4.605-0.361,5.18-3.381c2.205-11.664,3.867-23.332,0.482-35.063
		c-3.525-12.207-12.973-19.079-25.291-18.128c-8.514,0.658-16.152,3.66-22.615,9.441c-12.488,11.173-19.547,25.453-23.807,41.343
		c-1.354,5.051-0.813,5.729,4.641,5.758C841.039,353.852,851.025,353.818,861.012,353.811z"/>
	<path fill="#E52620" stroke="#FFFFFF" stroke-width="3" stroke-miterlimit="10" d="M480.345,395.916
		c-18.33,0.002-36.66-0.008-54.99,0.008c-6.617,0.006-7.057,0.543-6.234,7.258c0.402,3.305,0.604,6.646,1.262,9.898
		c3.92,19.375,16.613,30.107,36.375,30.51c18.743,0.381,36.777-3.355,53.998-10.652c4.381-1.855,5.445-0.707,5.975,3.506
		c1.264,10.07,2.662,20.141,4.426,30.137c0.666,3.768-0.594,5.445-3.807,6.881c-17.072,7.623-35.041,11.641-53.539,13.531
		c-13.98,1.428-27.928,1.395-41.742-1.664c-33.995-7.531-56.363-31.918-59.576-66.547c-4.197-45.241,6.937-86.587,36.051-121.757
		c25.71-31.062,59.859-42.433,99.39-35.888c29.102,4.82,48.119,26.121,52.617,57.18c3.627,25.035-0.637,49.429-6.771,73.625
		c-1.006,3.971-3.822,3.99-6.939,3.986C518.005,395.902,499.175,395.914,480.345,395.916z M458.552,353.816
		c10.328,0,20.652-0.003,30.979,0c2.396,0.002,4.91,0.032,5.502-3.026c2.428-12.51,4.08-25.092-0.221-37.497
		c-2.93-8.449-8.729-13.969-17.906-15.521c-9.619-1.625-18.293,0.854-25.924,6.448c-15.619,11.453-22.992,28.039-27.699,46.14
		c-0.914,3.516,1.572,3.428,3.789,3.434C437.566,353.828,448.06,353.807,458.552,353.816z"/>
	<path fill="#E52620" stroke="#FFFFFF" stroke-width="3" stroke-miterlimit="10" d="M617.206,579.242
		c-23.931-0.275-45.675-6.869-62.486-25.459c-11.248-12.439-16.078-27.369-16.229-43.955c-0.014-1.635-0.293-3.885,1.266-4.568
		c1.883-0.828,2.581,1.604,3.65,2.686c35.871,36.184,100.212,21.861,117.087-22.813c7.18-19,10.609-38.818,14.605-58.539
		c10.51-51.875,20.893-103.774,31.224-155.686c0.81-4.063,2.439-6.021,6.875-5.973c16.488,0.178,32.979,0.143,49.467,0.016
		c4.134-0.031,5.707,1.145,4.813,5.549c-13.959,68.836-27.561,137.75-41.854,206.515c-5.395,25.971-16.457,49.559-34.687,69.32
		C671.179,567.756,646.931,579.17,617.206,579.242z"/>
	<path fill="#E52620" stroke="#FFFFFF" stroke-width="3" stroke-miterlimit="10" d="M658.597,307.074
		c-3,0.006-6.033,0.297-8.988-0.06c-5.314-0.641-7.563,1.304-8.584,6.763c-5.188,27.651-10.809,55.222-16.281,82.819
		c-1.555,7.841-3.191,15.662-4.678,23.519c-3.666,19.383,4.643,27.771,23.943,24.336c2.189-0.395,5-2.508,6.479-0.535
		c1.479,1.971-0.557,4.75-1.467,7.002c-8.276,20.469-21.996,34.439-45.061,36.59c-23.771,2.213-42.818-9.904-46.71-35.887
		c-2.184-14.568,1.182-28.488,3.986-42.5c11.572-57.791,23.234-115.56,34.787-173.351c0.553-2.765,1.563-5.017,3.685-6.841
		c16.889-14.521,36.508-19.118,58.238-16.096c3.986,0.558,2.914,3.398,2.449,5.744c-2.649,13.393-5.399,26.766-8.098,40.148
		c-1.119,5.557-0.646,6.204,4.883,6.25c6.664,0.055,13.332,0.096,19.992-0.056c4.278-0.098,6.096,1.129,5.041,5.875
		c-2.347,10.562-4.373,21.197-6.307,31.844c-0.59,3.257-2.051,4.597-5.32,4.468C666.597,306.951,662.595,307.071,658.597,307.074z"
		/>
	<path fill="#E52620" stroke="#FFFFFF" stroke-width="3" stroke-miterlimit="10" d="M1060.891,307.074
		c-3.5,0.008-7.027,0.293-10.49-0.066c-4.313-0.448-5.76,1.531-6.525,5.455c-7.178,36.772-14.518,73.508-21.768,110.267
		c-0.814,4.129-0.783,8.277,0.496,12.355c1.787,5.697,5.74,8.916,11.57,9.564c5.145,0.572,10.314,0.461,15.379-0.92
		c3.053-0.832,4.521-0.234,3.373,3.369c-9.771,30.668-35.32,45.859-63.699,39.107c-13.604-3.238-22.516-11.754-26.975-24.914
		c-4.713-13.906-3.295-27.91-0.484-41.945c12.201-60.899,24.363-121.808,36.479-182.726c0.719-3.604,2.223-6.393,5.146-8.752
		c16.521-13.348,35.346-17.855,56.188-15.191c3.648,0.466,4.291,2.218,3.605,5.466c-2.932,13.848-5.598,27.752-8.668,41.565
		c-0.92,4.131,0.143,5.438,4.25,5.328c7.326-0.191,14.662-0.029,21.992-0.094c3.564-0.031,5.182,1.008,4.293,5.069
		c-2.352,10.734-4.422,21.531-6.457,32.33c-0.629,3.343-2.18,4.935-5.707,4.767C1068.896,306.921,1064.889,307.069,1060.891,307.074
		z"/>
	<path fill="#E52620" stroke="#FFFFFF" stroke-width="3" stroke-miterlimit="10" d="M1501.098,258.938
		c7.188,0.62,14.145,1.293,21.111,1.797c4.549,0.326,5.486,2.239,4.027,6.547c-4.063,11.981-7.863,24.059-11.551,36.164
		c-1.004,3.297-2.303,4.18-5.711,3.045c-9.605-3.199-19.422-4.398-29.523-2.4c-4.043,0.799-6.299,2.429-7.162,6.863
		c-10.789,55.394-21.785,110.743-32.705,166.108c-1.74,8.828-1.688,8.844-10.783,8.844c-14.992,0.004-29.984,0.016-44.979-0.006
		c-6.174-0.01-6.547-0.371-5.396-6.129c13.154-65.953,26.375-131.897,39.439-197.868c0.686-3.443,2.492-5.156,5.354-6.521
		c16.711-7.989,34.41-12.467,52.711-14.602C1484.344,259.796,1492.844,259.52,1501.098,258.938z"/>
	<path fill="#E52620" stroke="#FFFFFF" stroke-width="3" stroke-miterlimit="10" d="M1319.83,485.865
		c-7.992,0-15.986,0.021-23.98-0.006c-6.471-0.021-6.686-0.271-5.445-6.457c7.027-35.084,14.057-70.168,21.107-105.249
		c6.854-34.101,13.846-68.17,20.508-102.311c0.992-5.09,3.086-6.987,8.213-6.92c15.984,0.211,31.977,0.05,47.961,0.09
		c5.699,0.017,6.107,0.572,5.006,6.068c-13.928,69.347-27.896,138.687-41.701,208.058c-0.984,4.947-2.887,7.115-8.188,6.834
		C1335.5,485.559,1327.656,485.865,1319.83,485.865z"/>
	<path fill="#E52620" stroke="#FFFFFF" stroke-width="3" stroke-miterlimit="10" d="M290.619,485.863
		c-7.831,0.002-15.661,0.021-23.492-0.004c-6.76-0.02-6.979-0.25-5.69-6.703c8.416-42.117,16.85-84.236,25.289-126.352
		c5.463-27.26,11.029-54.5,16.32-81.794c0.784-4.047,2.449-5.711,6.494-5.713c16.989-0.012,33.979-0.158,50.966-0.27
		c4.23-0.029,4.311,2.299,3.63,5.639c-5.851,28.713-11.602,57.447-17.369,86.175c-8.256,41.137-16.571,82.262-24.645,123.434
		c-0.87,4.438-2.826,5.75-7.013,5.646C306.95,485.719,298.783,485.863,290.619,485.863z"/>
</g>
</svg>
