<svg width="249" height="210" viewBox="0 0 249 210" fill="none" xmlns="http://www.w3.org/2000/svg">
<path d="M42.7652 190.263C40.5041 189.667 39.6644 188.965 40.7324 188.142C48.1542 182.412 81.9118 182.616 98.2848 182.636C118.881 182.663 140.306 182.53 158.877 183.942C166.647 184.533 184.243 185.085 187.285 187.029C195.266 192.136 139.17 193.488 130.088 193.55C114.95 193.653 55.679 193.668 42.7652 190.263Z" fill="#E2E8F0"/>
<path d="M169.844 114.345H113.976C112.79 114.345 111.665 113.822 110.897 112.918L95.6188 94.9408C94.8504 94.0366 93.7235 93.5143 92.5401 93.5143H48.1004C45.8663 93.5143 44.0544 95.3325 44.0544 97.5744V114.342V184.654C44.0544 186.896 45.8663 188.714 48.1004 188.714H171.27C173.504 188.714 175.316 186.896 175.316 184.654V119.836C175.316 116.804 172.866 114.345 169.844 114.345Z" fill="#E2E8F0"/>
<path d="M172.738 120.068C172.738 118.183 171.214 116.653 169.336 116.653H112.603C111.442 116.653 110.337 116.148 109.583 115.271L94.6049 97.8528C93.8512 96.9758 92.7489 96.4707 91.5851 96.4707H48.0219C45.8295 96.4707 44.0544 98.2322 44.0544 100.405V116.651V184.779C44.0544 186.952 45.8319 188.714 48.0219 188.714H168.773C170.966 188.714 172.741 186.952 172.741 184.779V120.068H172.738Z" fill="#E2E8F0"/>
<path d="M169.984 114.111C164.271 114.111 158.558 114.111 152.845 114.111C143.164 114.111 133.484 114.111 123.803 114.111C120.977 114.111 118.152 114.111 115.326 114.111C114.226 114.111 113.217 114.106 112.237 113.426C111.344 112.807 110.644 111.763 109.949 110.945C106.922 107.382 103.892 103.82 100.865 100.255C99.6231 98.7939 98.3832 97.333 97.141 95.872C96.1393 94.6944 95.2186 93.5611 93.5565 93.3295C91.5605 93.0511 89.4 93.2802 87.3942 93.2802C82.9308 93.2802 78.4675 93.2802 74.0066 93.2802C65.8262 93.2802 57.6458 93.2802 49.4654 93.2802C46.3597 93.2802 43.4799 94.5687 43.4627 98.1386C43.4406 102.379 43.4627 106.621 43.4627 110.861C43.4627 114.985 43.4627 119.11 43.4627 123.236C43.4627 132.495 43.4627 141.753 43.4627 151.012C43.4627 159.935 43.4627 168.861 43.4627 177.785C43.4627 179.965 43.4553 182.145 43.4627 184.328C43.4725 187.004 45.2058 188.921 47.9359 188.953C51.7928 188.997 55.6498 188.953 59.5068 188.953C67.5521 188.953 75.5975 188.953 83.6428 188.953C93.667 188.953 103.691 188.953 113.715 188.953C123.413 188.953 133.108 188.953 142.806 188.953C149.874 188.953 156.942 188.953 164.013 188.953C165.881 188.953 167.752 188.953 169.62 188.953C171.491 188.953 173.379 188.852 174.776 187.364C176.242 185.804 175.913 183.503 175.913 181.532C175.913 178.157 175.913 174.784 175.913 171.409C175.913 161.62 175.913 151.832 175.913 142.044C175.913 135.015 175.913 127.986 175.913 120.96C175.913 120.561 175.923 120.159 175.908 119.76C175.78 116.515 173.126 114.202 169.984 114.111C169.738 114.103 168.643 114.562 169.21 114.579C172.341 114.67 174.658 117.198 174.724 120.29C174.734 120.795 174.724 121.3 174.724 121.805C174.724 124.618 174.724 127.429 174.724 130.243C174.724 139.63 174.724 149.016 174.724 158.403C174.724 166.255 174.724 174.109 174.724 181.961C174.724 184.415 175.117 188.191 171.656 188.485C170.877 188.551 170.067 188.485 169.289 188.485C163.861 188.485 158.432 188.485 153.007 188.485C144.237 188.485 135.465 188.485 126.693 188.485C116.725 188.485 106.76 188.485 96.7923 188.485C87.7772 188.485 78.7621 188.485 69.747 188.485C63.8302 188.485 57.9134 188.485 51.9966 188.485C50.8722 188.485 49.7453 188.514 48.6209 188.485C46.5537 188.43 44.84 186.94 44.6583 184.831C44.6215 184.397 44.6461 183.949 44.6461 183.515C44.6461 177.026 44.6461 170.537 44.6461 164.047C44.6461 154.244 44.6461 144.441 44.6461 134.638C44.6461 128.149 44.6461 121.659 44.6461 115.17C44.6461 109.417 44.6141 103.662 44.6461 97.907C44.6583 95.8646 45.5888 93.9503 47.8721 93.7508C48.6724 93.6818 49.5096 93.7508 50.3124 93.7508C54.0933 93.7508 57.8766 93.7508 61.6574 93.7508C70.6234 93.7508 79.5919 93.7508 88.5579 93.7508C90.8706 93.7508 93.4215 93.3245 95.1351 95.2339C97.4871 97.8528 99.7016 100.607 101.982 103.29C104.612 106.385 107.244 109.481 109.873 112.576C110.872 113.751 112.002 114.527 113.61 114.581C114.135 114.598 114.663 114.581 115.188 114.581C122.905 114.581 130.619 114.581 138.335 114.581C147.122 114.581 155.906 114.581 164.693 114.581C166.198 114.581 167.703 114.581 169.208 114.581C169.453 114.579 170.546 114.111 169.984 114.111Z" fill="#718096"/>
<g clip-path="url(#clip0)">
<path d="M117.859 172.667L90.7968 140.635C89.7389 139.383 89.9002 137.514 91.1597 136.461L160.078 78.7738C161.336 77.7207 163.213 77.8813 164.271 79.135L191.334 111.167C192.392 112.419 192.23 114.288 190.971 115.341L122.053 173.028C120.795 174.081 118.917 173.918 117.859 172.667Z" fill="white"/>
<path d="M118.289 172.483C116.191 169.999 114.092 167.514 111.994 165.03C107.892 160.176 103.791 155.321 99.6902 150.465C96.9619 147.235 94.2317 144.004 91.5034 140.774C90.3629 139.425 90.2304 137.661 91.6685 136.428C92.2541 135.926 92.8531 135.436 93.4445 134.941C96.288 132.56 99.1315 130.181 101.975 127.799C106.32 124.163 110.663 120.528 115.008 116.891C120.013 112.702 125.019 108.511 130.024 104.321C134.776 100.344 139.528 96.3674 144.28 92.3904C147.951 89.3174 151.624 86.2443 155.295 83.1712C156.979 81.7627 158.619 80.2644 160.362 78.9305C161.925 77.736 163.311 78.6839 164.344 79.9051C165.458 81.2238 166.573 82.5444 167.687 83.8631C171.613 88.5109 175.54 93.1587 179.466 97.8046C182.83 101.785 186.192 105.766 189.556 109.747C190.437 110.791 191.683 111.897 191.56 113.382C191.459 114.617 190.635 115.23 189.792 115.933C187.442 117.9 185.094 119.866 182.744 121.833C178.685 125.231 174.626 128.629 170.565 132.027C165.635 136.153 160.704 140.281 155.773 144.407C150.887 148.497 145.999 152.589 141.112 156.678C137.094 160.042 133.075 163.405 129.057 166.769C126.812 168.648 124.568 170.526 122.323 172.405C122.143 172.556 121.966 172.716 121.78 172.86C120.618 173.75 119.255 173.529 118.289 172.483C118.067 172.242 117.181 172.581 117.429 172.848C118.932 174.475 121.154 174.173 122.723 172.86C123.437 172.261 124.151 171.665 124.865 171.067C127.978 168.462 131.09 165.855 134.204 163.251C138.785 159.415 143.366 155.581 147.948 151.746C153.07 147.459 158.193 143.171 163.313 138.884C168.048 134.92 172.783 130.957 177.519 126.993C180.952 124.121 184.383 121.248 187.816 118.374C188.734 117.606 189.654 116.835 190.572 116.067C191.351 115.415 192.123 114.821 192.399 113.768C192.854 112.042 191.687 110.89 190.687 109.707C189.308 108.075 187.928 106.441 186.549 104.809C182.419 99.9202 178.287 95.0297 174.157 90.1411C171.16 86.594 168.163 83.0451 165.166 79.4981C164.957 79.2496 164.753 78.9802 164.519 78.7527C163.187 77.4532 161.105 77.5927 159.706 78.6916C159.312 79.0012 158.936 79.3356 158.552 79.6567C155.933 81.8487 153.314 84.0408 150.695 86.2328C146.383 89.841 142.072 93.4511 137.76 97.0593C132.684 101.308 127.607 105.558 122.531 109.806C117.617 113.919 112.704 118.032 107.789 122.145C103.966 125.346 100.141 128.545 96.3187 131.746C94.5139 133.256 92.688 134.744 90.9024 136.279C89.4182 137.556 89.2646 139.484 90.5069 140.986C91.4189 142.087 92.352 143.171 93.2736 144.262C97.1424 148.841 101.011 153.422 104.882 158.001C108.48 162.261 112.078 166.521 115.678 170.778C116.262 171.468 116.844 172.158 117.427 172.848C117.64 173.099 118.529 172.768 118.289 172.483Z" fill="#CBD5E0"/>
<path d="M191.334 111.165L164.272 79.133C163.214 77.8813 163.377 76.0122 164.634 74.9592L189.468 54.172C190.725 53.119 192.603 53.2795 193.661 54.5332L220.723 86.5654C221.781 87.8171 221.618 89.6862 220.361 90.7392L195.527 111.526C194.27 112.579 192.392 112.419 191.334 111.165Z" fill="white"/>
<path d="M191.764 110.984C189.097 107.827 186.428 104.667 183.761 101.51C179.13 96.0292 174.499 90.5462 169.868 85.0652C168.394 83.3203 166.919 81.5736 165.443 79.8287C165.199 79.5402 164.94 79.2592 164.709 78.9611C163.682 77.6233 163.926 75.9702 165.184 74.8962C169.423 71.2746 173.737 67.7371 178.013 64.1576C180.663 61.9388 183.312 59.7219 185.964 57.5031C187.244 56.431 188.488 55.2824 189.821 54.2753C191.92 52.689 193.429 54.948 194.615 56.3507C196.289 58.3326 197.964 60.3144 199.638 62.2962C204.3 67.8155 208.963 73.3348 213.625 78.8522C215.349 80.8932 217.073 82.9343 218.798 84.9754C220.015 86.4163 221.873 88.1134 220.468 90.1392C220.144 90.6074 219.615 90.9743 219.18 91.3374C218.369 92.0159 217.559 92.6943 216.749 93.3728C214.203 95.5037 211.657 97.6346 209.111 99.7674C204.591 103.549 200.074 107.333 195.554 111.116C195.431 111.217 195.314 111.328 195.187 111.423C194.041 112.281 192.688 111.983 191.764 110.984C191.541 110.743 190.656 111.081 190.904 111.349C192.255 112.809 194.416 112.793 195.928 111.584C196.378 111.224 196.814 110.842 197.255 110.473C199.503 108.591 201.752 106.71 203.998 104.828C209.182 100.488 214.366 96.1496 219.55 91.8095C219.94 91.4827 220.345 91.1693 220.721 90.8291C222.06 89.627 222.246 87.7675 221.125 86.3514C220.19 85.1703 219.174 84.0427 218.2 82.8903C213.592 77.436 208.986 71.9836 204.378 66.5293C201.003 62.5351 197.658 58.5122 194.252 54.5428C192.643 52.668 190.359 53.0292 188.632 54.474C186.755 56.0469 184.877 57.6178 182.999 59.1906C177.543 63.7582 172.086 68.3258 166.629 72.8933C165.239 74.0572 163.093 75.3223 163.108 77.3481C163.12 78.9611 164.711 80.3486 165.688 81.5029C170.055 86.6724 174.423 91.8401 178.789 97.0096C182.615 101.539 186.442 106.068 190.268 110.6C190.479 110.85 190.691 111.1 190.902 111.351C191.115 111.599 192.004 111.268 191.764 110.984Z" fill="#CBD5E0"/>
<path d="M191.925 105.927L177.838 89.2525C176.78 88.0007 176.943 86.1316 178.201 85.0786L197.157 69.2125C198.415 68.1595 200.292 68.3201 201.35 69.5737L215.437 86.2482C216.495 87.5 216.332 89.369 215.074 90.4221L196.118 106.288C194.859 107.341 192.983 107.179 191.925 105.927Z" fill="#E2E8F0"/>
<path d="M168.754 78.5024L172.71 83.1827C173.324 83.909 174.415 84.0026 175.144 83.393L196.011 65.9273C196.74 65.3158 196.835 64.2302 196.222 63.504L192.267 58.8237C191.652 58.0975 190.562 58.0038 189.832 58.6135L168.966 76.0791C168.234 76.6907 168.14 77.7743 168.754 78.5024Z" fill="#E2E8F0"/>
<path d="M166.854 88.4478L162.785 83.6318C162.203 82.9419 161.169 82.854 160.475 83.4331L105.675 129.304C104.982 129.883 104.893 130.913 105.475 131.603L109.544 136.419C110.125 137.109 111.16 137.196 111.853 136.617L166.654 90.7469C167.347 90.1678 167.435 89.1378 166.854 88.4478Z" fill="#E2E8F0"/>
<path d="M121.665 168.357L126.167 164.588C126.952 163.931 127.054 162.763 126.394 161.982L102.837 134.099C102.177 133.317 101.004 133.216 100.218 133.873L95.7159 137.642C94.9306 138.299 94.8288 139.467 95.4893 140.249L119.046 168.132C119.706 168.913 120.879 169.015 121.665 168.357Z" fill="#E2E8F0"/>
<path d="M118.539 144.789C121.774 142.081 125.009 139.373 128.246 136.665C133.377 132.371 138.507 128.077 143.637 123.782C144.822 122.791 146.006 121.799 147.191 120.807C147.523 120.53 147.335 120.193 146.993 120.073C146.563 119.92 146.008 120.149 145.682 120.423C142.447 123.131 139.212 125.839 135.974 128.547C130.844 132.841 125.714 137.135 120.584 141.43C119.399 142.421 118.214 143.413 117.03 144.405C116.698 144.682 116.886 145.019 117.228 145.139C117.658 145.29 118.213 145.061 118.539 144.789Z" fill="#CBD5E0"/>
<path d="M140.525 119.685C141.577 118.804 142.629 117.923 143.681 117.042C144.004 116.772 143.835 116.417 143.483 116.308C143.04 116.172 142.508 116.375 142.172 116.658C141.12 117.539 140.068 118.42 139.016 119.301C138.693 119.57 138.862 119.926 139.213 120.035C139.657 120.17 140.189 119.966 140.525 119.685Z" fill="#CBD5E0"/>
<path d="M131.693 127.077C133.901 125.229 136.109 123.381 138.317 121.533C138.649 121.256 138.461 120.919 138.119 120.799C137.689 120.646 137.134 120.876 136.808 121.149C134.6 122.997 132.392 124.845 130.184 126.693C129.851 126.97 130.04 127.306 130.381 127.427C130.811 127.58 131.366 127.35 131.693 127.077Z" fill="#CBD5E0"/>
<path d="M121.035 135.998C123.915 133.586 126.795 131.176 129.675 128.765C130.007 128.487 129.819 128.151 129.477 128.031C129.047 127.878 128.492 128.107 128.166 128.38C125.286 130.792 122.406 133.202 119.526 135.614C119.193 135.891 119.382 136.227 119.723 136.348C120.153 136.499 120.71 136.27 121.035 135.998Z" fill="#CBD5E0"/>
<path d="M115.031 141.024C116.137 140.099 117.243 139.173 118.349 138.248C118.671 137.978 118.502 137.623 118.151 137.514C117.708 137.378 117.176 137.581 116.84 137.863C115.734 138.788 114.628 139.715 113.522 140.64C113.199 140.91 113.368 141.265 113.72 141.374C114.161 141.51 114.693 141.305 115.031 141.024Z" fill="#CBD5E0"/>
<path d="M142.232 131.404C144.898 129.172 147.565 126.939 150.23 124.707C150.562 124.428 150.374 124.094 150.032 123.973C149.602 123.821 149.048 124.05 148.721 124.323C146.054 126.555 143.387 128.787 140.722 131.02C140.39 131.297 140.578 131.633 140.92 131.754C141.35 131.906 141.907 131.677 142.232 131.404Z" fill="#CBD5E0"/>
<path d="M132.056 139.924C134.456 137.915 136.856 135.905 139.256 133.896C139.588 133.619 139.4 133.283 139.058 133.162C138.628 133.009 138.073 133.239 137.747 133.512C135.347 135.52 132.947 137.531 130.547 139.539C130.214 139.819 130.403 140.153 130.744 140.273C131.174 140.424 131.729 140.195 132.056 139.924Z" fill="#CBD5E0"/>
<path d="M121.58 148.692C123.729 146.893 125.875 145.097 128.024 143.299C128.356 143.022 128.168 142.685 127.826 142.565C127.396 142.412 126.841 142.641 126.515 142.914C124.366 144.713 122.22 146.509 120.071 148.308C119.739 148.585 119.927 148.921 120.269 149.042C120.699 149.194 121.254 148.965 121.58 148.692Z" fill="#CBD5E0"/>
<path d="M177.923 101.551L170.746 93.0556C170.168 92.3714 169.142 92.2835 168.457 92.8588L145.962 111.687C145.275 112.262 145.187 113.283 145.764 113.965L152.941 122.46C153.519 123.144 154.545 123.232 155.23 122.657L177.725 103.829C178.412 103.253 178.5 102.235 177.923 101.551Z" fill="#E2E8F0"/>
<path d="M146.648 144.705L142.56 139.868C141.982 139.184 140.957 139.096 140.271 139.671L125.124 152.35C124.437 152.925 124.349 153.945 124.927 154.628L129.014 159.467C129.592 160.151 130.617 160.239 131.303 159.664L146.45 146.985C147.137 146.41 147.225 145.389 146.648 144.705Z" fill="#E2E8F0"/>
<path d="M186.031 111.742L181.943 106.905C181.365 106.221 180.34 106.133 179.654 106.708L164.507 119.387C163.82 119.962 163.732 120.983 164.31 121.665L168.397 126.502C168.975 127.186 170.001 127.274 170.686 126.699L185.833 114.02C186.52 113.445 186.609 112.425 186.031 111.742Z" fill="#E2E8F0"/>
<path d="M166.487 128.101L162.399 123.264C161.822 122.58 160.796 122.492 160.111 123.068L144.964 135.746C144.277 136.321 144.188 137.342 144.766 138.024L148.854 142.861C149.432 143.545 150.457 143.633 151.142 143.058L166.289 130.38C166.975 129.804 167.065 128.784 166.487 128.101Z" fill="#E2E8F0"/>
<path d="M122.3 122.454C125.585 119.704 128.87 116.954 132.157 114.204C137.403 109.814 142.648 105.424 147.892 101.032C149.107 100.016 150.323 98.9991 151.536 97.9823C151.868 97.7052 151.68 97.3689 151.338 97.2485C150.908 97.0956 150.353 97.3249 150.027 97.5982C146.742 100.348 143.457 103.098 140.17 105.848C134.924 110.238 129.679 114.628 124.435 119.02C123.22 120.037 122.006 121.053 120.791 122.07C120.459 122.347 120.647 122.683 120.989 122.804C121.419 122.955 121.976 122.726 122.3 122.454Z" fill="white"/>
<path d="M117.348 168.049L87.6173 138.456C86.4557 137.3 86.4557 135.423 87.6173 134.267L151.29 70.8886C152.452 69.7324 154.337 69.7324 155.499 70.8886L185.23 100.482C186.392 101.638 186.392 103.515 185.23 104.671L121.557 168.049C120.396 169.208 118.51 169.208 117.348 168.049Z" fill="white"/>
<path d="M117.779 167.868C115.473 165.573 113.167 163.277 110.861 160.982C106.355 156.497 101.848 152.011 97.3421 147.526C94.343 144.541 91.3459 141.558 88.3469 138.572C87.0912 137.323 86.8051 135.595 88.1126 134.225C88.6445 133.667 89.207 133.135 89.7523 132.593C92.3789 129.978 95.0074 127.362 97.6339 124.747C101.647 120.753 105.661 116.757 109.674 112.763C114.3 108.159 118.923 103.557 123.548 98.9532C127.937 94.5844 132.328 90.2137 136.717 85.8449C140.11 82.468 143.501 79.0929 146.893 75.716C148.452 74.1642 149.99 72.5856 151.574 71.0567C152.997 69.6826 154.479 70.4891 155.614 71.6186C156.839 72.8379 158.062 74.0553 159.287 75.2745C163.601 79.5688 167.914 83.8612 172.228 88.1554C175.922 91.8324 179.618 95.5113 183.312 99.1883C184.234 100.106 185.514 101.067 185.624 102.449C185.729 103.773 184.927 104.518 184.105 105.334C181.933 107.496 179.764 109.655 177.592 111.817C173.843 115.549 170.091 119.284 166.341 123.016C161.787 127.549 157.231 132.084 152.676 136.617C148.161 141.112 143.647 145.605 139.131 150.1C135.418 153.796 131.706 157.491 127.993 161.187C125.919 163.251 123.846 165.315 121.772 167.379C121.605 167.545 121.44 167.715 121.271 167.877C120.227 168.89 118.835 168.829 117.779 167.868C117.533 167.644 116.661 167.998 116.918 168.233C118.539 169.706 120.751 169.307 122.204 167.858C122.865 167.201 123.523 166.545 124.184 165.888C127.06 163.025 129.936 160.162 132.81 157.301C137.044 153.087 141.276 148.875 145.509 144.661C150.242 139.95 154.973 135.241 159.706 130.53C164.081 126.175 168.455 121.822 172.831 117.466C176.003 114.309 179.172 111.154 182.344 107.997C183.193 107.152 184.042 106.307 184.89 105.462C185.606 104.75 186.342 104.088 186.524 103.022C186.829 101.256 185.58 100.216 184.477 99.1195C182.963 97.6116 181.446 96.1018 179.931 94.594C175.392 90.0761 170.855 85.5601 166.316 81.0423C163.023 77.7647 159.731 74.4872 156.436 71.2096C156.204 70.9784 155.979 70.7299 155.727 70.5216C154.308 69.3482 152.22 69.5985 150.914 70.8064C150.547 71.1465 150.202 71.5154 149.848 71.867C147.429 74.275 145.01 76.683 142.591 79.091C138.607 83.0566 134.625 87.0202 130.641 90.9858C125.95 95.6546 121.26 100.323 116.571 104.99C112.032 109.508 107.491 114.028 102.952 118.546C99.4195 122.062 95.8886 125.577 92.3558 129.093C90.6893 130.752 88.9978 132.392 87.3523 134.074C85.9853 135.471 85.968 137.395 87.3427 138.792C88.345 139.811 89.3702 140.81 90.3821 141.818C94.633 146.049 98.8838 150.28 103.135 154.511C107.088 158.446 111.041 162.381 114.995 166.316C115.636 166.954 116.275 167.591 116.916 168.229C117.153 168.466 118.032 168.12 117.779 167.868Z" fill="#718096"/>
<path d="M185.23 100.482L155.499 70.8886C154.337 69.7324 154.337 67.8557 155.499 66.6995L178.443 43.8617C179.604 42.7055 181.49 42.7055 182.652 43.8617L212.383 73.4552C213.544 74.6115 213.544 76.4882 212.383 77.6444L189.439 100.482C188.277 101.64 186.394 101.64 185.23 100.482Z" fill="white"/>
<path d="M185.66 100.301C182.728 97.3823 179.798 94.4659 176.867 91.5476C171.779 86.4832 166.691 81.4188 161.603 76.3543C159.982 74.7413 158.362 73.1284 156.741 71.5154C156.472 71.2478 156.194 70.9898 155.935 70.7127C154.779 69.4781 154.892 67.8021 156.033 66.6191C159.898 62.6077 163.937 58.7511 167.885 54.8218C170.333 52.3852 172.781 49.9485 175.231 47.5099C176.413 46.3327 177.552 45.079 178.794 43.9629C180.781 42.1779 182.41 44.2304 183.738 45.5529C185.578 47.3838 187.417 49.2146 189.256 51.0455C194.379 56.1443 199.501 61.2432 204.624 66.342C206.519 68.2283 208.412 70.1126 210.307 71.9989C211.642 73.3271 213.648 74.8636 212.437 77.0003C212.152 77.501 211.669 77.9061 211.263 78.3094C210.515 79.0547 209.766 79.8001 209.017 80.5454C206.665 82.8865 204.313 85.2276 201.959 87.5706C197.783 91.7273 193.609 95.8821 189.433 100.039C189.32 100.151 189.212 100.27 189.093 100.377C188.029 101.329 186.695 101.241 185.66 100.301C185.414 100.077 184.543 100.431 184.8 100.666C186.265 102 188.413 101.856 189.838 100.538C190.26 100.146 190.656 99.7234 191.063 99.3182C193.14 97.2504 195.216 95.1845 197.293 93.1167C202.084 88.3485 206.872 83.5821 211.663 78.8139C212.024 78.4546 212.398 78.1068 212.746 77.736C213.974 76.4288 214.028 74.5655 212.782 73.243C211.747 72.146 210.639 71.1102 209.57 70.0457C204.509 65.0081 199.446 59.9684 194.385 54.9308C190.677 51.2404 186.996 47.5195 183.26 43.8578C181.515 42.1454 179.245 42.6098 177.644 44.2037C175.908 45.9313 174.175 47.6571 172.439 49.3847C167.397 54.4033 162.357 59.42 157.315 64.4385C156.035 65.7132 153.997 67.1638 154.174 69.1704C154.314 70.7777 156.029 72.0276 157.098 73.0921C161.896 77.8679 166.693 82.6419 171.491 87.4177C175.695 91.6031 179.9 95.7884 184.103 99.9718C184.335 100.203 184.568 100.434 184.8 100.666C185.036 100.899 185.914 100.553 185.66 100.301Z" fill="#718096"/>
<path d="M185.366 95.2113L169.889 79.8058C168.728 78.6496 168.728 76.7728 169.889 75.6166L187.403 58.1835C188.565 57.0272 190.451 57.0272 191.612 58.1835L207.089 73.5889C208.251 74.7452 208.251 76.6219 207.089 77.7781L189.575 95.2113C188.413 96.3694 186.528 96.3694 185.366 95.2113Z" fill="url(#paint0_linear)"/>
<path d="M159.911 69.8738L164.256 74.1986C164.93 74.8694 166.024 74.8694 166.7 74.1986L185.979 55.0091C186.653 54.3383 186.653 53.249 185.979 52.5763L181.634 48.2515C180.96 47.5807 179.865 47.5807 179.19 48.2515L159.911 67.4409C159.235 68.1136 159.235 69.203 159.911 69.8738Z" fill="#E2E8F0"/>
<path d="M158.876 79.9472L154.406 75.4981C153.767 74.8617 152.728 74.8617 152.089 75.4981L101.459 125.894C100.819 126.531 100.819 127.564 101.459 128.201L105.928 132.65C106.568 133.286 107.606 133.286 108.246 132.65L158.876 82.2539C159.517 81.6175 159.517 80.5836 158.876 79.9472Z" fill="url(#paint1_linear)"/>
<path d="M120.768 163.43L124.927 159.291C125.653 158.568 125.653 157.397 124.927 156.674L99.0451 130.913C98.3194 130.19 97.1424 130.19 96.4167 130.913L92.2579 135.052C91.5322 135.775 91.5322 136.946 92.2579 137.668L118.14 163.43C118.865 164.154 120.042 164.154 120.768 163.43Z" fill="#E2E8F0"/>
<path d="M115.601 140.283C118.591 137.307 121.58 134.332 124.57 131.356C129.31 126.638 134.049 121.921 138.789 117.202C139.884 116.113 140.978 115.024 142.072 113.934C142.858 113.153 141.049 113.069 140.563 113.55C137.574 116.526 134.584 119.501 131.595 122.477C126.854 127.196 122.116 131.912 117.375 136.631C116.281 137.72 115.187 138.809 114.092 139.899C113.307 140.68 115.116 140.766 115.601 140.283Z" fill="#CBD5E0"/>
<path d="M135.335 113.388C136.306 112.421 137.28 111.452 138.251 110.485C138.541 110.196 138.432 109.868 138.054 109.751C137.641 109.625 137.046 109.799 136.742 110.101C135.771 111.068 134.797 112.037 133.826 113.004C133.536 113.292 133.645 113.621 134.024 113.738C134.436 113.864 135.032 113.69 135.335 113.388Z" fill="#CBD5E0"/>
<path d="M127.173 121.51C129.214 119.479 131.253 117.449 133.294 115.417C134.079 114.636 132.271 114.552 131.785 115.033C129.744 117.065 127.705 119.094 125.664 121.126C124.881 121.908 126.689 121.994 127.173 121.51Z" fill="#CBD5E0"/>
<path d="M117.327 131.31C119.989 128.661 122.65 126.013 125.311 123.364C126.096 122.582 124.287 122.498 123.802 122.98C121.141 125.629 118.479 128.277 115.818 130.926C115.035 131.708 116.842 131.794 117.327 131.31Z" fill="#CBD5E0"/>
<path d="M111.781 136.833C112.802 135.817 113.823 134.8 114.845 133.783C115.135 133.495 115.025 133.166 114.647 133.049C114.234 132.923 113.639 133.097 113.336 133.399C112.314 134.416 111.293 135.433 110.271 136.449C109.981 136.738 110.091 137.067 110.469 137.183C110.882 137.311 111.477 137.135 111.781 136.833Z" fill="#CBD5E0"/>
<path d="M138.048 124.919C140.511 122.468 142.975 120.016 145.438 117.564C146.223 116.782 144.415 116.698 143.929 117.179C141.466 119.631 139.002 122.083 136.539 124.535C135.755 125.315 137.564 125.401 138.048 124.919Z" fill="#CBD5E0"/>
<path d="M128.646 134.278C130.863 132.071 133.081 129.864 135.299 127.656C136.084 126.875 134.275 126.79 133.789 127.272C131.572 129.479 129.354 131.687 127.137 133.894C126.353 134.676 128.16 134.76 128.646 134.278Z" fill="#CBD5E0"/>
<path d="M118.967 143.912C120.952 141.936 122.936 139.962 124.921 137.986C125.706 137.204 123.898 137.12 123.412 137.602C121.427 139.578 119.443 141.552 117.458 143.528C116.675 144.308 118.483 144.394 118.967 143.912Z" fill="#CBD5E0"/>
<path d="M171.037 92.0522L163.154 84.2051C162.518 83.5726 161.491 83.5726 160.856 84.2051L140.074 104.889C139.438 105.522 139.438 106.544 140.074 107.177L147.957 115.024C148.593 115.656 149.62 115.656 150.255 115.024L171.037 94.3379C171.673 93.7072 171.673 92.6828 171.037 92.0522Z" fill="#E2E8F0"/>
<path d="M143.612 137.726L139.121 133.256C138.486 132.623 137.459 132.623 136.823 133.256L122.83 147.184C122.195 147.816 122.195 148.839 122.83 149.472L127.321 153.942C127.957 154.574 128.984 154.574 129.619 153.942L143.612 140.013C144.248 139.383 144.248 138.358 143.612 137.726Z" fill="url(#paint2_linear)"/>
<path d="M179.998 101.51L175.507 97.0402C174.872 96.4076 173.844 96.4076 173.209 97.0402L159.216 110.97C158.58 111.603 158.58 112.625 159.216 113.258L163.707 117.728C164.342 118.361 165.369 118.361 166.005 117.728L179.998 103.8C180.632 103.165 180.632 102.141 179.998 101.51Z" fill="url(#paint3_linear)"/>
<path d="M161.94 119.482L157.449 115.012C156.814 114.38 155.787 114.38 155.151 115.012L141.158 128.94C140.523 129.573 140.523 130.595 141.158 131.228L145.649 135.698C146.285 136.331 147.312 136.331 147.947 135.698L161.94 121.77C162.576 121.139 162.576 120.115 161.94 119.482Z" fill="url(#paint4_linear)"/>
<path d="M197.493 77.7742C196.637 77.2506 195.798 76.7116 194.961 76.1517C193.39 75.0987 191.819 74.0437 190.249 72.9907C190.259 72.878 190.274 72.7652 190.276 72.6505C190.28 70.8598 190.794 68.3888 189.548 67.0108C188.427 65.7724 187.117 67.0147 186.755 68.3314C186.455 69.4227 186.549 70.6037 186.587 71.7236C186.603 72.1689 186.614 72.6142 186.624 73.0595C185.088 74.0896 183.552 75.1197 182.016 76.1498C181.179 76.7117 180.34 77.2506 179.483 77.7723C179.034 78.0475 178.059 78.6419 178.52 79.3318C178.787 79.7312 179.405 79.7809 179.939 79.7503C181.396 79.6643 182.828 79.263 184.228 78.8158C185.042 78.5559 185.875 78.1889 186.701 77.9596C186.764 80.3122 186.9 82.8177 187.104 85.1626C186.23 85.4779 185.537 86.0876 185.24 86.5233C185.121 86.6991 185.268 86.9399 185.464 86.8883L187.916 86.2328C188.123 86.1774 188.342 86.1774 188.55 86.2328L190.936 86.8692C191.138 86.9227 191.286 86.6685 191.153 86.4965C190.848 86.0952 190.182 85.5563 189.421 85.2333C189.681 82.8329 189.809 80.4268 189.938 78.0208C190.873 78.2883 191.819 78.5215 192.743 78.8177C194.141 79.2649 195.575 79.6643 197.032 79.7522C197.568 79.7847 198.184 79.735 198.451 79.3337C198.92 78.6419 197.942 78.0475 197.493 77.7742Z" fill="white"/>
<path d="M117.418 117.709C120.453 114.687 123.489 111.666 126.524 108.644C131.37 103.821 136.216 98.9971 141.062 94.1735C142.186 93.0555 143.307 91.9394 144.43 90.8214C145.215 90.0397 143.407 89.9556 142.921 90.4372C139.886 93.4587 136.85 96.4802 133.814 99.5017C128.968 104.325 124.122 109.149 119.276 113.973C118.153 115.091 117.032 116.207 115.909 117.325C115.123 118.106 116.932 118.192 117.418 117.709Z" fill="white"/>
<path d="M125.327 169.678L85.6983 155.921C84.1499 155.383 83.3354 153.693 83.8801 152.147L113.735 67.4138C114.28 65.868 115.979 65.0496 117.527 65.5871L157.156 79.3439C158.705 79.8814 159.519 81.5721 158.974 83.1179L129.119 167.851C128.575 169.399 126.877 170.217 125.327 169.678Z" fill="white"/>
<path d="M125.636 169.327C122.562 168.26 119.489 167.193 116.415 166.126C110.409 164.041 104.402 161.956 98.3959 159.871C94.3985 158.484 90.4035 157.097 86.4061 155.709C84.7324 155.128 83.7248 153.696 84.308 151.894C84.5449 151.16 84.8212 150.438 85.0768 149.712C86.3084 146.217 87.5409 142.719 88.7724 139.223C90.654 133.883 92.5364 128.541 94.418 123.201C96.5867 117.046 98.7545 110.893 100.923 104.738C102.981 98.8971 105.04 93.0537 107.098 87.2128C108.689 82.6981 110.279 78.1859 111.87 73.6711C112.601 71.5964 113.301 69.5067 114.064 67.4419C114.75 65.5865 116.435 65.6697 117.948 66.1947C119.58 66.7615 121.211 67.3274 122.843 67.8942C128.594 69.8905 134.342 71.8858 140.092 73.882C145.016 75.5913 149.943 77.3015 154.867 79.0107C156.095 79.4372 157.666 79.7474 158.364 80.9447C159.034 82.092 158.635 83.1118 158.249 84.2036C157.23 87.0934 156.213 89.9806 155.195 92.8704C153.437 97.8604 151.678 102.853 149.919 107.843C147.784 113.904 145.648 119.967 143.512 126.027C141.395 132.037 139.278 138.044 137.161 144.053C135.42 148.995 133.679 153.933 131.938 158.875C130.966 161.634 129.994 164.394 129.022 167.153C128.943 167.376 128.868 167.6 128.787 167.82C128.285 169.186 127.005 169.735 125.636 169.327C125.318 169.233 124.686 169.929 125.02 170.03C127.119 170.654 128.938 169.334 129.619 167.398C129.929 166.519 130.237 165.643 130.547 164.764C131.896 160.936 133.244 157.109 134.592 153.284C136.577 147.65 138.561 142.019 140.546 136.385C142.765 130.087 144.984 123.791 147.203 117.493C149.255 111.67 151.305 105.849 153.357 100.026C154.844 95.8055 156.331 91.5871 157.818 87.3662C158.216 86.2368 158.614 85.1075 159.012 83.9782C159.347 83.0251 159.723 82.1103 159.424 81.0704C158.933 79.347 157.356 78.9529 155.887 78.4429C153.867 77.742 151.846 77.0402 149.827 76.3392C143.777 74.239 137.729 72.1398 131.679 70.0396C127.29 68.516 122.901 66.9924 118.51 65.4696C118.201 65.3621 117.891 65.2358 117.574 65.1573C115.786 64.716 114.013 65.8482 113.361 67.503C113.178 67.9686 113.027 68.4509 112.861 68.921C111.727 72.1404 110.592 75.3598 109.458 78.5791C107.59 83.8809 105.723 89.18 103.855 94.4818C101.655 100.724 99.4562 106.966 97.2577 113.205C95.1295 119.245 93.0004 125.288 90.8721 131.328C89.2157 136.029 87.5601 140.728 85.9036 145.429C85.1222 147.647 84.31 149.859 83.5575 152.088C82.9323 153.94 83.752 155.681 85.5968 156.343C86.9418 156.826 88.2993 157.281 89.648 157.749C95.3141 159.716 100.98 161.683 106.646 163.65C111.916 165.479 117.185 167.308 122.454 169.138C123.309 169.434 124.161 169.73 125.016 170.027C125.332 170.138 125.974 169.445 125.636 169.327Z" fill="#718096"/>
<path d="M157.156 79.3439L117.527 65.5871C115.979 65.0496 115.164 63.3589 115.709 61.8131L126.467 31.2803C127.011 29.7344 128.71 28.9161 130.258 29.4536L169.888 43.2104C171.436 43.7479 172.25 45.4386 171.706 46.9844L160.948 77.5173C160.404 79.0648 158.707 79.8823 157.156 79.3439Z" fill="white"/>
<path d="M157.465 78.9937C153.557 77.6371 149.651 76.2814 145.744 74.9248C138.962 72.5705 132.18 70.2163 125.398 67.862C123.238 67.1122 121.078 66.3624 118.918 65.6126C118.56 65.4883 118.197 65.3767 117.843 65.2395C116.266 64.6289 115.641 63.0698 116.155 61.5091C117.896 56.2177 119.861 50.9899 121.712 45.7368C122.86 42.4791 124.008 39.2214 125.156 35.9611C125.711 34.3872 126.193 32.7636 126.827 31.219C127.843 28.7484 130.2 29.8909 131.971 30.5056C134.423 31.3567 136.875 32.2078 139.327 33.0589C146.155 35.4291 152.982 37.7994 159.81 40.1696C162.336 41.0464 164.86 41.9224 167.386 42.7993C169.164 43.4167 171.639 43.9301 171.475 46.3808C171.436 46.9553 171.176 47.5303 170.986 48.0694C170.635 49.0659 170.284 50.0623 169.933 51.0588C168.83 54.1887 167.727 57.3187 166.623 60.4512C164.665 66.0084 162.708 71.5631 160.75 77.1203C160.697 77.271 160.651 77.4245 160.591 77.5725C160.045 78.8916 158.805 79.3916 157.465 78.9937C157.146 78.8989 156.514 79.5957 156.848 79.6958C158.747 80.2618 160.62 79.2001 161.331 77.3938C161.542 76.8575 161.715 76.3054 161.906 75.7637C162.88 72.9991 163.853 70.2371 164.827 67.4726C167.073 61.0977 169.319 54.7254 171.565 48.3506C171.734 47.8702 171.92 47.3944 172.072 46.9095C172.612 45.1986 171.852 43.4965 170.155 42.8459C168.747 42.3068 167.299 41.8545 165.874 41.3597C159.128 39.0178 152.379 36.6751 145.633 34.3333C140.691 32.6178 135.76 30.8631 130.805 29.186C128.489 28.4008 126.647 29.8042 125.896 31.9351C125.082 34.2448 124.269 36.552 123.455 38.8618C121.091 45.5714 118.728 52.2784 116.364 58.9879C115.763 60.6921 114.558 62.8831 115.588 64.6142C116.411 66.0014 118.499 66.3832 119.924 66.8781C126.32 69.0982 132.712 71.3174 139.108 73.5375C144.712 75.4831 150.317 77.4286 155.919 79.3733C156.229 79.4808 156.539 79.5883 156.848 79.6958C157.162 79.8034 157.803 79.1109 157.465 78.9937Z" fill="#718096"/>
<path d="M154.991 74.5362L134.362 67.3748C132.813 66.8373 131.999 65.1466 132.543 63.6008L140.755 40.2936C141.3 38.7478 142.999 37.9295 144.547 38.467L165.177 45.6284C166.725 46.1658 167.54 47.8566 166.995 49.4024L158.783 72.7095C158.239 74.2571 156.54 75.0754 154.991 74.5362Z" fill="url(#paint5_linear)"/>
<path d="M121.061 62.7579L126.853 64.7683C127.751 65.0802 128.737 64.6052 129.055 63.7075L138.094 38.0523C138.41 37.1555 137.937 36.1741 137.038 35.8605L131.247 33.8501C130.349 33.5383 129.363 34.0133 129.045 34.9109L120.005 60.5662C119.689 61.4655 120.161 62.4469 121.061 62.7579Z" fill="#E2E8F0"/>
<path d="M124.501 72.2822L118.543 70.214C117.691 69.9182 116.755 70.369 116.456 71.2198L92.7156 138.596C92.4158 139.447 92.8646 140.379 93.7168 140.675L99.6746 142.743C100.527 143.039 101.463 142.588 101.762 141.737L125.502 74.3603C125.804 73.5087 125.355 72.5772 124.501 72.2822Z" fill="url(#paint6_linear)"/>
<path d="M126.403 164.032L128.353 158.498C128.693 157.532 128.185 156.477 127.218 156.141L92.7195 144.165C91.7521 143.829 90.6918 144.34 90.3515 145.306L88.4016 150.84C88.0613 151.806 88.5697 152.861 89.5371 153.197L124.035 165.173C125.003 165.51 126.064 165 126.403 164.032Z" fill="#E2E8F0"/>
<path d="M111.702 145.421C113.104 141.443 114.505 137.465 115.907 133.486C118.13 127.178 120.352 120.872 122.574 114.564C123.088 113.107 123.601 111.651 124.114 110.195C124.482 109.15 122.816 109.859 122.588 110.504C121.186 114.482 119.784 118.46 118.382 122.438C116.16 128.747 113.938 135.052 111.715 141.361C111.202 142.817 110.689 144.274 110.176 145.73C109.807 146.775 111.474 146.068 111.702 145.421Z" fill="#CBD5E0"/>
<path d="M117.807 112.626C118.262 111.333 118.719 110.038 119.174 108.745C119.31 108.359 119.069 108.111 118.678 108.17C118.251 108.235 117.79 108.65 117.648 109.054C117.193 110.347 116.736 111.642 116.281 112.935C116.145 113.321 116.386 113.57 116.777 113.511C117.204 113.445 117.665 113.03 117.807 112.626Z" fill="#CBD5E0"/>
<path d="M113.979 123.486C114.936 120.77 115.892 118.057 116.849 115.341C117.217 114.296 115.551 115.005 115.323 115.65C114.366 118.366 113.41 121.079 112.453 123.795C112.086 124.839 113.753 124.132 113.979 123.486Z" fill="#CBD5E0"/>
<path d="M109.363 136.588C110.61 133.047 111.858 129.506 113.106 125.965C113.474 124.92 111.808 125.629 111.58 126.273C110.332 129.815 109.084 133.356 107.836 136.897C107.47 137.942 109.135 137.235 109.363 136.588Z" fill="#CBD5E0"/>
<path d="M106.763 143.972C107.242 142.612 107.72 141.253 108.199 139.894C108.335 139.508 108.094 139.259 107.703 139.319C107.276 139.384 106.815 139.799 106.673 140.203C106.194 141.562 105.715 142.921 105.236 144.281C105.1 144.666 105.342 144.915 105.733 144.856C106.16 144.792 106.62 144.375 106.763 143.972Z" fill="#CBD5E0"/>
<path d="M125.256 121.838C126.411 118.56 127.566 115.281 128.721 112.003C129.089 110.958 127.423 111.668 127.195 112.312C126.04 115.59 124.885 118.869 123.73 122.147C123.362 123.189 125.029 122.482 125.256 121.838Z" fill="#CBD5E0"/>
<path d="M120.848 134.35C121.887 131.399 122.927 128.448 123.967 125.497C124.335 124.451 122.669 125.161 122.441 125.805C121.401 128.757 120.361 131.708 119.321 134.659C118.955 135.703 120.619 134.994 120.848 134.35Z" fill="#CBD5E0"/>
<path d="M116.309 147.23C117.24 144.588 118.17 141.948 119.101 139.307C119.469 138.262 117.803 138.971 117.575 139.615C116.644 142.257 115.714 144.897 114.783 147.539C114.416 148.581 116.082 147.874 116.309 147.23Z" fill="#CBD5E0"/>
<path d="M140.711 77.9093L130.203 74.2615C129.356 73.9675 128.431 74.4133 128.133 75.259L118.387 102.913C118.089 103.759 118.533 104.68 119.38 104.974L129.888 108.622C130.735 108.916 131.661 108.47 131.959 107.624L141.703 79.9685C142.002 79.1245 141.557 78.2016 140.711 77.9093Z" fill="#E2E8F0"/>
<path d="M135.827 130.96L129.841 128.882C128.994 128.588 128.069 129.034 127.771 129.88L121.21 148.501C120.912 149.346 121.355 150.268 122.202 150.562L128.188 152.64C129.035 152.934 129.961 152.488 130.259 151.642L136.82 133.021C137.119 132.177 136.674 131.254 135.827 130.96Z" fill="url(#paint7_linear)"/>
<path d="M152.889 82.541L146.903 80.463C146.056 80.169 145.13 80.6148 144.832 81.4605L138.272 100.083C137.974 100.929 138.418 101.85 139.265 102.144L145.251 104.222C146.098 104.516 147.023 104.071 147.321 103.225L153.883 84.6036C154.178 83.757 153.733 82.8341 152.889 82.541Z" fill="url(#paint8_linear)"/>
<path d="M144.421 106.57L138.435 104.492C137.588 104.198 136.663 104.643 136.365 105.489L129.804 124.11C129.506 124.956 129.949 125.877 130.796 126.171L136.782 128.249C137.629 128.543 138.555 128.097 138.853 127.252L145.414 108.63C145.713 107.786 145.268 106.864 144.421 106.57Z" fill="url(#paint9_linear)"/>
<path d="M158.348 53.5639C157.349 53.4638 156.36 53.3424 155.362 53.2013C153.49 52.9343 151.618 52.6655 149.746 52.3985C149.705 52.2928 149.67 52.1845 149.622 52.0804C148.849 50.4655 148.24 48.0159 146.519 47.3154C144.971 46.6864 144.331 48.3738 144.575 49.7176C144.779 50.8307 145.377 51.8539 145.897 52.8462C146.104 53.2407 146.308 53.6368 146.51 54.0338C145.573 55.6285 144.636 57.2232 143.7 58.8178C143.189 59.6874 142.667 60.537 142.122 61.3787C141.837 61.8217 141.216 62.7804 141.931 63.202C142.345 63.446 142.923 63.2224 143.391 62.9632C144.666 62.2532 145.783 61.27 146.85 60.2596C147.47 59.6722 148.062 58.9799 148.706 58.415C149.784 60.5069 150.994 62.7049 152.195 64.7292C151.545 65.3924 151.185 66.2425 151.106 66.7642C151.075 66.9743 151.313 67.127 151.467 66.9955L153.391 65.3408C153.554 65.2009 153.751 65.1059 153.962 65.0658L156.389 64.6033C156.593 64.5641 156.616 64.2709 156.422 64.1734C155.973 63.9444 155.139 63.748 154.314 63.787C153.505 61.5121 152.577 59.2886 151.649 57.0651C152.607 56.9003 153.561 56.6995 154.522 56.5656C155.975 56.3618 157.44 56.0991 158.792 55.5458C159.288 55.3426 159.822 55.0304 159.888 54.553C160.01 53.7264 158.872 53.6151 158.348 53.5639Z" fill="white"/>
<path d="M103.541 124.296C104.964 120.256 106.387 116.217 107.811 112.177C110.083 105.728 112.355 99.2792 114.627 92.8303C115.154 91.3356 115.68 89.8434 116.206 88.3487C116.575 87.3037 114.909 88.0129 114.68 88.6576C113.257 92.6972 111.833 96.7367 110.41 100.776C108.138 107.225 105.866 113.674 103.593 120.123C103.067 121.618 102.541 123.11 102.014 124.605C101.646 125.65 103.313 124.942 103.541 124.296Z" fill="white"/>
<path d="M122.491 180.712L80.544 180.338C78.9052 180.323 77.5931 178.981 77.6153 177.343L78.8332 87.5119C78.8554 85.8731 80.2035 84.5549 81.8424 84.5696L123.79 84.9436C125.429 84.9582 126.741 86.3 126.718 87.9388L125.501 177.77C125.48 179.41 124.132 180.728 122.491 180.712Z" fill="white"/>
<path d="M122.672 180.281C119.419 180.252 116.165 180.223 112.912 180.194C106.554 180.138 100.196 180.081 93.8384 180.024C89.6071 179.987 85.3785 179.949 81.1472 179.911C79.3755 179.895 77.9632 178.86 77.9401 176.966C77.9302 176.195 77.961 175.422 77.9714 174.653C78.0217 170.947 78.0719 167.239 78.1222 163.533C78.1989 157.872 78.2757 152.208 78.3525 146.547C78.4409 140.021 78.5294 133.499 78.6178 126.973C78.7018 120.781 78.7858 114.586 78.8697 108.394C78.9346 103.607 78.9994 98.8238 79.0643 94.0374C79.0941 91.8379 79.0902 89.634 79.1539 87.4334C79.2105 85.4563 80.8341 84.9967 82.4351 85.0109C84.1633 85.0263 85.8889 85.0417 87.6172 85.0571C93.7041 85.1114 99.7883 85.1657 105.875 85.2199C111.087 85.2664 116.302 85.3129 121.514 85.3594C122.814 85.371 124.402 85.163 125.446 86.0744C126.447 86.9475 126.395 88.0415 126.378 89.1995C126.336 92.2631 126.295 95.324 126.253 98.3876C126.181 103.678 126.11 108.971 126.038 114.261C125.951 120.686 125.864 127.114 125.776 133.539C125.69 139.91 125.604 146.279 125.517 152.65C125.446 157.888 125.375 163.124 125.304 168.363C125.265 171.289 125.225 174.214 125.185 177.14C125.182 177.375 125.183 177.612 125.176 177.846C125.137 179.301 124.099 180.23 122.672 180.281C122.34 180.293 121.964 181.155 122.312 181.144C124.501 181.064 125.803 179.232 125.83 177.18C125.842 176.249 125.855 175.32 125.867 174.388C125.922 170.33 125.977 166.272 126.032 162.217C126.113 156.244 126.194 150.274 126.275 144.302C126.366 137.624 126.456 130.95 126.547 124.273C126.631 118.1 126.714 111.929 126.798 105.756C126.859 101.281 126.919 96.8088 126.98 92.3339C126.996 91.1366 127.012 89.9394 127.029 88.7421C127.042 87.7317 127.106 86.7448 126.491 85.8548C125.474 84.3788 123.854 84.5093 122.299 84.4954C120.162 84.4763 118.022 84.4573 115.884 84.4382C109.48 84.3811 103.079 84.324 96.6754 84.2669C92.0296 84.2255 87.3839 84.1841 82.7367 84.144C82.4089 84.1411 82.0746 84.1205 81.7491 84.1474C79.9143 84.3004 78.5957 85.9398 78.5066 87.7162C78.4822 88.2158 78.493 88.7211 78.4862 89.2195C78.4399 92.6326 78.3937 96.0456 78.3474 99.4586C78.2712 105.079 78.195 110.697 78.1188 116.318C78.0291 122.935 77.9394 129.553 77.8497 136.168C77.7629 142.571 77.6761 148.978 77.5893 155.381C77.5217 160.365 77.4542 165.347 77.3866 170.331C77.3547 172.682 77.2916 175.037 77.2909 177.39C77.2901 179.344 78.6232 180.732 80.5828 180.77C82.0116 180.798 83.4434 180.796 84.871 180.808C90.8685 180.862 96.8661 180.915 102.864 180.969C108.441 181.019 114.019 181.068 119.596 181.118C120.501 181.126 121.403 181.134 122.308 181.142C122.643 181.147 123.03 180.285 122.672 180.281Z" fill="#718096"/>
<path d="M123.79 84.9435L81.8422 84.5695C80.2033 84.5549 78.8913 83.2131 78.9135 81.5743L79.3523 49.2045C79.3745 47.5657 80.7226 46.2476 82.3615 46.2622L124.309 46.6362C125.948 46.6508 127.26 47.9927 127.238 49.6315L126.799 82.0012C126.778 83.6414 125.431 84.9582 123.79 84.9435Z" fill="white"/>
<path d="M123.97 84.513C119.834 84.4761 115.7 84.4393 111.563 84.4024C104.385 84.3384 97.2063 84.2744 90.0277 84.2104C87.7414 84.19 85.4551 84.1696 83.1687 84.1492C82.7895 84.1459 82.4101 84.156 82.031 84.1391C80.3414 84.0644 79.2507 82.7869 79.2391 81.1437C79.1981 75.5734 79.3903 69.9917 79.4658 64.4225C79.5126 60.9688 79.5594 57.5151 79.6063 54.0588C79.6289 52.3902 79.5665 50.6978 79.6744 49.0313C79.8474 46.3657 82.4465 46.695 84.3211 46.7118C86.9162 46.7349 89.5113 46.758 92.1065 46.7812C99.3338 46.8456 106.561 46.91 113.789 46.9745C116.462 46.9983 119.133 47.0221 121.807 47.046C123.69 47.0628 126.198 46.7587 126.826 49.1334C126.973 49.69 126.91 50.318 126.902 50.8895C126.888 51.946 126.874 53.0024 126.859 54.0588C126.814 57.377 126.769 60.6953 126.724 64.0162C126.644 69.9078 126.565 75.7966 126.485 81.6882C126.483 81.848 126.489 82.0079 126.478 82.1676C126.383 83.5918 125.368 84.4618 123.97 84.513C123.638 84.525 123.262 85.3872 123.61 85.3754C125.59 85.305 127.026 83.7005 127.123 81.7616C127.151 81.1862 127.139 80.6077 127.147 80.0334C127.186 77.1025 127.226 74.1744 127.266 71.2435C127.357 64.4851 127.449 57.7295 127.541 50.9711C127.548 50.4619 127.572 49.9514 127.561 49.4433C127.526 47.6496 126.262 46.2797 124.446 46.2053C122.939 46.1445 121.423 46.1783 119.914 46.1649C112.774 46.1012 105.63 46.0375 98.4895 45.9739C93.2586 45.9272 88.0256 45.84 82.7941 45.8339C80.3491 45.8298 79.0511 47.7484 79.0205 50.0075C78.9873 52.4562 78.9541 54.9022 78.9209 57.351C78.8245 64.4642 78.7281 71.5747 78.6317 78.6879C78.6072 80.4946 78.1647 82.956 79.6939 84.2673C80.9178 85.3185 83.0175 85.0134 84.5264 85.0269C91.2959 85.0873 98.0628 85.1476 104.832 85.2079C110.765 85.2608 116.697 85.3137 122.627 85.3666C122.955 85.3695 123.283 85.3724 123.61 85.3754C123.942 85.377 124.328 84.5162 123.97 84.513Z" fill="#718096"/>
<path d="M120.202 81.0795L98.366 80.8848C96.7271 80.8702 95.415 79.5284 95.4373 77.8895L95.7722 53.1802C95.7944 51.5414 97.1425 50.2233 98.7814 50.2379L120.618 50.4326C122.257 50.4472 123.569 51.7891 123.547 53.4279L123.212 78.1372C123.191 79.7774 121.843 81.0955 120.202 81.0795Z" fill="url(#paint10_linear)"/>
<path d="M84.2877 80.7594L90.418 80.814C91.3688 80.8225 92.1513 80.0574 92.1655 79.1053L92.5343 51.9066C92.5472 50.9558 91.7856 50.177 90.8334 50.1671L84.7032 50.1125C83.7524 50.104 82.9699 50.8691 82.9556 51.8212L82.5869 79.0199C82.5739 79.9734 83.3355 80.7523 84.2877 80.7594Z" fill="#E2E8F0"/>
<path d="M90.5902 88.6855L84.2839 88.6292C83.3818 88.6212 82.6391 89.3474 82.6269 90.2494L81.6585 161.679C81.6463 162.581 82.3691 163.321 83.2712 163.329L89.5775 163.385C90.4796 163.393 91.2223 162.667 91.2345 161.765L92.2029 90.3348C92.2165 89.4314 91.4937 88.6922 90.5902 88.6855Z" fill="url(#paint11_linear)"/>
<path d="M121.707 175.018L121.787 169.151C121.8 168.127 120.981 167.29 119.957 167.281L83.4414 166.955C82.4175 166.946 81.5759 167.769 81.562 168.793L81.4825 174.66C81.4686 175.684 82.2876 176.521 83.3116 176.53L119.828 176.856C120.853 176.866 121.694 176.044 121.707 175.018Z" fill="#E2E8F0"/>
<path d="M101.83 162.08C101.887 157.863 101.944 153.645 102.002 149.427C102.092 142.739 102.183 136.054 102.274 129.366C102.295 127.822 102.315 126.278 102.336 124.734C102.351 123.626 100.999 124.831 100.989 125.515C100.932 129.732 100.874 133.95 100.817 138.167C100.727 144.855 100.636 151.541 100.545 158.228C100.524 159.772 100.503 161.316 100.483 162.86C100.468 163.968 101.821 162.765 101.83 162.08Z" fill="#CBD5E0"/>
<path d="M97.1371 129.054C97.1557 127.683 97.1743 126.31 97.1929 124.939C97.1984 124.53 96.8903 124.372 96.5384 124.553C96.1551 124.751 95.8511 125.291 95.8453 125.719C95.8267 127.09 95.8081 128.463 95.7895 129.834C95.7839 130.243 96.092 130.402 96.444 130.221C96.8273 130.022 97.1313 129.482 97.1371 129.054Z" fill="#CBD5E0"/>
<path d="M96.9799 140.567C97.0189 137.688 97.0579 134.811 97.0969 131.932C97.1119 130.824 95.7599 132.028 95.7493 132.712C95.7103 135.592 95.6713 138.468 95.6323 141.348C95.6186 142.454 96.9719 141.251 96.9799 140.567Z" fill="#CBD5E0"/>
<path d="M96.7913 154.458C96.8422 150.703 96.8931 146.949 96.944 143.195C96.959 142.087 95.6071 143.291 95.5964 143.975C95.5455 147.73 95.4946 151.484 95.4437 155.238C95.4301 156.345 96.782 155.143 96.7913 154.458Z" fill="#CBD5E0"/>
<path d="M96.6867 162.285C96.7063 160.844 96.7258 159.403 96.7453 157.962C96.7509 157.553 96.4428 157.394 96.0909 157.575C95.7075 157.774 95.4036 158.314 95.3978 158.742C95.3782 160.183 95.3587 161.624 95.3392 163.065C95.3336 163.474 95.6417 163.633 95.9936 163.452C96.3783 163.255 96.6809 162.713 96.6867 162.285Z" fill="#CBD5E0"/>
<path d="M107.139 135.402C107.186 131.927 107.233 128.452 107.28 124.976C107.295 123.868 105.943 125.073 105.933 125.757C105.886 129.232 105.838 132.707 105.791 136.183C105.776 137.288 107.13 136.085 107.139 135.402Z" fill="#CBD5E0"/>
<path d="M106.959 148.667C107.002 145.538 107.044 142.41 107.086 139.281C107.101 138.173 105.749 139.378 105.739 140.062C105.696 143.19 105.654 146.319 105.612 149.447C105.598 150.554 106.949 149.351 106.959 148.667Z" fill="#CBD5E0"/>
<path d="M106.774 162.322C106.812 159.521 106.85 156.723 106.888 153.922C106.903 152.814 105.551 154.018 105.54 154.702C105.502 157.503 105.464 160.301 105.426 163.102C105.411 164.207 106.765 163.005 106.774 162.322Z" fill="#CBD5E0"/>
<path d="M107.749 88.8384L96.6258 88.7392C95.7291 88.7312 94.9947 89.4494 94.9825 90.346L94.5837 119.664C94.5715 120.561 95.2863 121.292 96.183 121.3L107.306 121.399C108.202 121.407 108.937 120.689 108.949 119.792L109.347 90.4727C109.36 89.5774 108.644 88.845 107.749 88.8384Z" fill="#E2E8F0"/>
<path d="M120.071 140.669L113.734 140.612C112.838 140.604 112.103 141.323 112.091 142.219L111.823 161.961C111.811 162.857 112.526 163.588 113.423 163.596L119.759 163.653C120.656 163.661 121.39 162.943 121.402 162.046L121.67 142.305C121.683 141.409 120.967 140.677 120.071 140.669Z" fill="url(#paint12_linear)"/>
<path d="M120.768 89.3365L114.432 89.28C113.535 89.272 112.801 89.9901 112.788 90.8867L112.522 110.63C112.51 111.526 113.225 112.257 114.121 112.265L120.458 112.322C121.354 112.33 122.089 111.612 122.101 110.715L122.368 90.9735C122.378 90.0769 121.662 89.3445 120.768 89.3365Z" fill="url(#paint13_linear)"/>
<path d="M120.421 114.811L114.085 114.755C113.188 114.747 112.454 115.465 112.441 116.361L112.174 136.103C112.162 136.999 112.876 137.73 113.773 137.738L120.109 137.795C121.006 137.803 121.74 137.085 121.753 136.188L122.02 116.447C122.034 115.551 121.317 114.819 120.421 114.811Z" fill="url(#paint14_linear)"/>
<path d="M116.682 60.1339C115.704 60.3582 114.727 60.5594 113.737 60.7443C111.878 61.0894 110.018 61.4331 108.159 61.7782C108.087 61.6908 108.019 61.5995 107.94 61.5161C106.691 60.2331 105.331 58.1065 103.477 57.9925C101.809 57.8909 101.742 59.6946 102.403 60.8897C102.951 61.8794 103.844 62.6581 104.655 63.432C104.977 63.7396 105.297 64.05 105.615 64.3616C105.237 66.172 104.859 67.9824 104.481 69.7927C104.275 70.7797 104.052 71.7516 103.804 72.7234C103.675 73.2342 103.393 74.3411 104.205 74.5122C104.675 74.6112 105.152 74.2145 105.512 73.8195C106.494 72.7392 107.238 71.4509 107.926 70.1526C108.326 69.3976 108.666 68.5527 109.095 67.8115C110.786 69.4494 112.635 71.1455 114.42 72.6798C114.015 73.5161 113.946 74.4365 114.038 74.9561C114.076 75.1651 114.35 75.2339 114.454 75.0601L115.748 72.8773C115.858 72.6927 116.014 72.5396 116.201 72.4343L118.353 71.2208C118.534 71.1182 118.462 70.8331 118.247 70.8027C117.749 70.7292 116.895 70.8096 116.126 71.1102C114.633 69.2128 113.043 67.4024 111.453 65.5921C112.308 65.1297 113.148 64.6347 114.016 64.2008C115.328 63.5434 116.632 62.8263 117.736 61.8703C118.142 61.5191 118.548 61.0527 118.458 60.5791C118.309 59.7569 117.195 60.0152 116.682 60.1339Z" fill="white"/>
<path d="M87.347 144.67C87.4051 140.387 87.4632 136.104 87.5212 131.822C87.6139 124.985 87.7066 118.148 87.7993 111.311C87.8208 109.727 87.8422 108.145 87.8637 106.56C87.8787 105.452 86.5267 106.656 86.5161 107.34C86.458 111.623 86.4 115.906 86.3419 120.188C86.2492 127.025 86.1566 133.862 86.0639 140.699C86.0424 142.283 86.0209 143.865 85.9995 145.45C85.9844 146.558 87.3378 145.355 87.347 144.67Z" fill="white"/>
</g>
<path d="M172.063 188.714H47.3072C45.5101 188.714 44.0518 187.253 44.0518 185.447V115.798C44.0518 113.995 45.5076 112.532 47.3072 112.532H172.061C173.858 112.532 175.316 113.993 175.316 115.798V185.447C175.316 187.253 173.86 188.714 172.063 188.714Z" fill="#EDF2F7"/>
<path d="M169.232 188.714H47.3072C45.5101 188.714 44.0518 187.253 44.0518 185.447V118.674C44.0518 116.87 45.5076 115.407 47.3072 115.407H169.23C171.027 115.407 172.485 116.868 172.485 118.674V185.449C172.485 187.253 171.029 188.714 169.232 188.714Z" fill="white"/>
<path d="M172.294 188.379C169.618 188.379 166.942 188.379 164.266 188.379C157.467 188.379 150.669 188.379 143.871 188.379C134.797 188.379 125.723 188.379 116.649 188.379C107.145 188.379 97.6416 188.379 88.1355 188.379C80.0459 188.379 71.9588 188.379 63.8693 188.379C59.0426 188.379 54.2159 188.379 49.3891 188.379C48.2672 188.379 46.9807 188.544 46.0085 187.886C44.2801 186.718 44.6459 184.39 44.6459 182.574C44.6459 175.425 44.6459 168.277 44.6459 161.128C44.6459 151.756 44.6459 142.384 44.6459 133.012C44.6459 127.38 44.6115 121.746 44.6459 116.114C44.6557 114.579 45.3088 113.014 47.0764 112.874C47.2679 112.859 47.4668 112.874 47.6583 112.874C49.0454 112.874 50.435 112.874 51.8221 112.874C57.7929 112.874 63.7662 112.874 69.737 112.874C78.4305 112.874 87.124 112.874 95.8175 112.874C105.348 112.874 114.876 112.874 124.407 112.874C133.015 112.874 141.622 112.874 150.23 112.874C156.029 112.874 161.83 112.874 167.629 112.874C168.898 112.874 170.17 112.854 171.439 112.874C173.573 112.906 174.724 114.47 174.724 116.503C174.724 122.221 174.724 127.939 174.724 133.655C174.724 143.037 174.724 152.419 174.724 161.8C174.724 168.884 174.724 175.964 174.724 183.047C174.724 184.996 175.127 188.233 172.294 188.379C171.857 188.401 171.039 189.093 171.832 189.054C174.02 188.943 175.834 187.551 175.91 185.25C175.925 184.794 175.91 184.333 175.91 183.878C175.91 181.303 175.91 178.726 175.91 176.151C175.91 167.262 175.91 158.373 175.91 149.487C175.91 140.78 175.91 132.074 175.91 123.367C175.91 121.083 175.91 118.797 175.91 116.513C175.91 116.01 175.942 115.483 175.844 114.988C175.493 113.231 173.89 112.243 172.2 112.201C168.908 112.12 165.604 112.201 162.311 112.201C154.953 112.201 147.595 112.201 140.238 112.201C130.825 112.201 121.412 112.201 111.999 112.201C102.412 112.201 92.8223 112.201 83.2351 112.201C75.4991 112.201 67.7655 112.201 60.0295 112.201C56.0424 112.201 52.0529 112.201 48.0658 112.201C45.7237 112.201 43.5386 113.411 43.4601 116.02C43.4134 117.548 43.4601 119.082 43.4601 120.61C43.4601 128.629 43.4601 136.651 43.4601 144.67C43.4601 154.008 43.4601 163.345 43.4601 172.683C43.4601 175.851 43.4601 179.019 43.4601 182.19C43.4601 183.538 43.1974 185.265 43.6074 186.583C44.285 188.77 46.3129 189.056 48.223 189.056C49.9293 189.056 51.6355 189.056 53.3418 189.056C59.8675 189.056 66.3931 189.056 72.9188 189.056C82.0419 189.056 91.1651 189.056 100.286 189.056C109.981 189.056 119.676 189.056 129.371 189.056C137.76 189.056 146.152 189.056 154.541 189.056C159.621 189.056 164.698 189.056 169.777 189.056C170.462 189.056 171.145 189.056 171.83 189.056C172.277 189.051 173.089 188.379 172.294 188.379Z" fill="#718096"/>
<path d="M121.483 142.749H93.5662V162.855H121.483V142.749Z" fill="#EDF2F7"/>
<path d="M97.1728 156.592C105.115 156.592 113.06 156.592 121.002 156.592C122.141 156.592 123.283 156.592 124.422 156.592C124.903 156.592 125.667 155.863 124.869 155.863C116.927 155.863 108.982 155.863 101.04 155.863C99.9004 155.863 98.7588 155.863 97.6196 155.863C97.1384 155.863 96.3749 156.592 97.1728 156.592Z" fill="#718096"/>
<path d="M97.1728 151.648C105.115 151.648 113.06 151.648 121.002 151.648C122.141 151.648 123.283 151.648 124.422 151.648C124.896 151.648 125.669 150.928 124.871 150.928C116.929 150.928 108.984 150.928 101.042 150.928C99.9029 150.928 98.7612 150.928 97.6221 150.928C97.1482 150.928 96.3724 151.648 97.1728 151.648Z" fill="#718096"/>
<path d="M97.1515 145.382C105.094 145.382 113.038 145.382 120.981 145.382C122.12 145.382 123.261 145.382 124.401 145.382C124.771 145.382 125.682 144.826 124.894 144.826C116.952 144.826 109.007 144.826 101.065 144.826C99.9258 144.826 98.7842 144.826 97.645 144.826C97.2718 144.823 96.361 145.382 97.1515 145.382Z" fill="#718096"/>
<path d="M97.3472 161.394C99.3628 161.394 101.381 161.394 103.397 161.394C104.079 161.394 104.3 160.504 103.497 160.504C101.482 160.504 99.4635 160.504 97.4479 160.504C96.7629 160.504 96.5419 161.394 97.3472 161.394Z" fill="#718096"/>
<path d="M107.953 161.414C109.969 161.414 111.987 161.414 114.003 161.414C114.7 161.414 114.894 160.482 114.091 160.482C112.075 160.482 110.057 160.482 108.042 160.482C107.342 160.482 107.15 161.414 107.953 161.414Z" fill="#718096"/>
<defs>
<linearGradient id="paint0_linear" x1="188.489" y1="57.3163" x2="188.489" y2="96.0798" gradientUnits="userSpaceOnUse">
<stop stop-color="#00B6F3"/>
<stop offset="1" stop-color="#008DF3"/>
</linearGradient>
<linearGradient id="paint1_linear" x1="130.168" y1="75.0208" x2="130.168" y2="133.127" gradientUnits="userSpaceOnUse">
<stop stop-color="#FEA6D0"/>
<stop offset="1" stop-color="#FF7EBC"/>
</linearGradient>
<linearGradient id="paint2_linear" x1="133.221" y1="132.781" x2="133.221" y2="154.416" gradientUnits="userSpaceOnUse">
<stop stop-color="#FEA6D0"/>
<stop offset="1" stop-color="#FF7EBC"/>
</linearGradient>
<linearGradient id="paint3_linear" x1="169.606" y1="96.5657" x2="169.606" y2="118.202" gradientUnits="userSpaceOnUse">
<stop stop-color="#FEA6D0"/>
<stop offset="1" stop-color="#FF7EBC"/>
</linearGradient>
<linearGradient id="paint4_linear" x1="151.549" y1="114.538" x2="151.549" y2="136.173" gradientUnits="userSpaceOnUse">
<stop stop-color="#FEA6D0"/>
<stop offset="1" stop-color="#FF7EBC"/>
</linearGradient>
<linearGradient id="paint5_linear" x1="141.357" y1="39.0412" x2="158.182" y2="73.9633" gradientUnits="userSpaceOnUse">
<stop stop-color="#00B6F3"/>
<stop offset="1" stop-color="#008DF3"/>
</linearGradient>
<linearGradient id="paint6_linear" x1="96.4998" y1="80.304" x2="121.719" y2="132.652" gradientUnits="userSpaceOnUse">
<stop stop-color="#FEA6D0"/>
<stop offset="1" stop-color="#FF7EBC"/>
</linearGradient>
<linearGradient id="paint7_linear" x1="124.32" y1="131.015" x2="133.71" y2="150.506" gradientUnits="userSpaceOnUse">
<stop stop-color="#FEA6D0"/>
<stop offset="1" stop-color="#FF7EBC"/>
</linearGradient>
<linearGradient id="paint8_linear" x1="141.381" y1="82.5967" x2="150.772" y2="102.089" gradientUnits="userSpaceOnUse">
<stop stop-color="#FEA6D0"/>
<stop offset="1" stop-color="#FF7EBC"/>
</linearGradient>
<linearGradient id="paint9_linear" x1="132.914" y1="106.625" x2="142.304" y2="126.116" gradientUnits="userSpaceOnUse">
<stop stop-color="#FEA6D0"/>
<stop offset="1" stop-color="#FF7EBC"/>
</linearGradient>
<linearGradient id="paint10_linear" x1="95.9423" y1="51.8011" x2="123.043" y2="79.5173" gradientUnits="userSpaceOnUse">
<stop stop-color="#00B6F3"/>
<stop offset="1" stop-color="#008DF3"/>
</linearGradient>
<linearGradient id="paint11_linear" x1="66.6196" y1="105.233" x2="107.243" y2="146.78" gradientUnits="userSpaceOnUse">
<stop stop-color="#FEA6D0"/>
<stop offset="1" stop-color="#FF7EBC"/>
</linearGradient>
<linearGradient id="paint12_linear" x1="109.184" y1="144.398" x2="124.309" y2="159.867" gradientUnits="userSpaceOnUse">
<stop stop-color="#FEA6D0"/>
<stop offset="1" stop-color="#FF7EBC"/>
</linearGradient>
<linearGradient id="paint13_linear" x1="109.881" y1="93.0662" x2="125.007" y2="108.537" gradientUnits="userSpaceOnUse">
<stop stop-color="#FEA6D0"/>
<stop offset="1" stop-color="#FF7EBC"/>
</linearGradient>
<linearGradient id="paint14_linear" x1="109.534" y1="118.54" x2="124.66" y2="134.009" gradientUnits="userSpaceOnUse">
<stop stop-color="#FEA6D0"/>
<stop offset="1" stop-color="#FF7EBC"/>
</linearGradient>
<clipPath id="clip0">
<rect width="192" height="172" fill="white" transform="translate(54 19)"/>
</clipPath>
</defs>
</svg>